<svg xmlns="http://www.w3.org/2000/svg" width="45" height="64" viewBox="0 0 45 64"><g><g><path fill="#fa8904" d="M10.139 37c0 .69-.559 1.25-1.247 1.25-.688 0-1.246-.56-1.246-1.25s.558-1.25 1.246-1.25 1.247.56 1.247 1.25zm0 5v15.75c0 .69-.558 1.25-1.247 1.25-.688 0-1.246-.56-1.246-1.25V42c0-.69.558-1.25 1.246-1.25.689 0 1.247.56 1.247 1.25zm34.563-29.056a6.206 6.206 0 0 1-3.599 3.685c-.211 2.583-.784 5.875-1.597 9.188a3.753 3.753 0 0 1 .543 7.22v24.712c0 3.447-2.796 6.25-6.232 6.25H8.892c-3.436 0-6.23-2.803-6.23-6.25V33.034a3.755 3.755 0 0 1-1.398-6.186 3.707 3.707 0 0 1 2.008-1.043l-1.297-5.146-1.933-7.237a1.242 1.242 0 0 1-.027-.13l-.005-.04a1.2 1.2 0 0 1 .01-.371c0-.008.001-.017.003-.025L2.257 1.53A1.244 1.244 0 1 1 4.43.963l7.395 8.74c.006.005.01.013.015.019a1.223 1.223 0 0 1 .124.183l.021.04c.014.027.026.054.038.083l.015.036c.016.04.03.081.04.123l1.936 7.244a.24.24 0 0 1 .004.013l2.128 8.306h.224V1.25c0-.69.558-1.25 1.246-1.25h9.97c.688 0 1.246.56 1.246 1.25v20.667c1.393-2.966 2.976-6 4.504-8.199a6.254 6.254 0 0 1-.346-5.049c1.02-2.81 7.284-7.513 8.53-8.428a1.244 1.244 0 0 1 1.943.698c.386 1.511 2.261 9.189 1.239 12.005zM29.829 25.75h7.124c.787-3.104 1.36-6.207 1.61-8.7a6.215 6.215 0 0 1-3.569-1.33c-1.504 2.291-3.262 5.704-5.165 10.03zm-10.967 0h7.478v-2.875h-2.493c-.688 0-1.246-.56-1.246-1.25s.558-1.25 1.246-1.25h2.493v-2.5h-2.493c-.688 0-1.246-.56-1.246-1.25s.558-1.25 1.246-1.25h2.493v-2.5h-2.493c-.688 0-1.246-.56-1.246-1.25s.558-1.25 1.246-1.25h2.493v-2.5h-2.493c-.688 0-1.246-.56-1.246-1.25s.558-1.25 1.246-1.25h2.493V2.5h-7.478zM2.654 12.396a5.74 5.74 0 0 0 3.618.202 5.76 5.76 0 0 0 3.042-2L4.201 4.555zm1.73 7.624a.33.33 0 0 1 .005.017l1.44 5.713h7.744l-1.968-7.677-1.307-4.891a8.246 8.246 0 0 1-3.381 1.83 8.309 8.309 0 0 1-2.16.287c-.566 0-1.128-.059-1.68-.175zm33.172 13.23H5.154v24.5a3.749 3.749 0 0 0 3.738 3.75h24.925a3.749 3.749 0 0 0 3.74-3.75zm1.247-5H15.183 3.908c-.332 0-.645.13-.88.366a1.25 1.25 0 0 0 .881 2.133h34.894c.333 0 .646-.13.881-.366a1.25 1.25 0 0 0-.88-2.134zm2.682-24.842c-2.646 2.086-5.686 4.83-6.153 6.116a3.755 3.755 0 0 0 .506 3.508v.001a3.72 3.72 0 0 0 1.73 1.297 3.7 3.7 0 0 0 2.078.139 3.728 3.728 0 0 0 2.714-2.38c.466-1.285-.147-5.364-.875-8.681z"/></g></g></svg>