<svg xmlns="http://www.w3.org/2000/svg" width="61" height="54" viewBox="0 0 61 54"><g><g><path fill="#25bb07" d="M24.067 39.282c-.23 0-.462-.08-.651-.241l-6.517-5.568a1.012 1.012 0 0 1 0-1.538l6.517-5.568a1.005 1.005 0 0 1 1.42.114c.36.425.309 1.063-.115 1.424l-5.616 4.799 5.616 4.798a1.013 1.013 0 0 1-.654 1.78zm12.865 0c-.285 0-.568-.12-.767-.355a1.013 1.013 0 0 1 .114-1.425l5.616-4.798-5.616-4.8a1.012 1.012 0 0 1-.114-1.423c.36-.425.997-.476 1.42-.114l6.516 5.568a1.012 1.012 0 0 1 0 1.538l-6.517 5.568c-.19.162-.421.241-.652.241zm-8.739 4.177a1.01 1.01 0 0 1-.987-1.22l4.062-19.348a1.007 1.007 0 1 1 1.97.417l-4.061 19.348c-.1.476-.518.803-.984.803zm26.045 10.54H6.762C3.034 54 0 50.957 0 47.216V6.784C0 3.044 3.034 0 6.762 0h47.476C57.966 0 61 3.043 61 6.784v40.431C61 50.956 57.966 54 54.238 54zM6.762 2.02c-2.618 0-4.748 2.137-4.748 4.764v7.375h56.972V6.784c0-2.627-2.13-4.764-4.748-4.764zM2.014 47.215c0 2.627 2.13 4.764 4.748 4.764h47.476c2.618 0 4.748-2.137 4.748-4.764V16.18H2.014zm15.193-35.87a3.197 3.197 0 0 1-3.187-3.198 3.196 3.196 0 0 1 3.187-3.198 3.196 3.196 0 0 1 3.187 3.198 3.196 3.196 0 0 1-3.187 3.198zm0-4.375a1.176 1.176 0 0 0 0 2.354 1.176 1.176 0 0 0 0-2.354zm-9.792 4.344a3.196 3.196 0 0 1-3.187-3.198 3.196 3.196 0 0 1 3.187-3.198 3.196 3.196 0 0 1 3.187 3.198 3.196 3.196 0 0 1-3.187 3.198zm0-4.375a1.177 1.177 0 0 0 0 2.354 1.176 1.176 0 0 0 0-2.354zm19.584 4.436a3.196 3.196 0 0 1-3.187-3.198A3.196 3.196 0 0 1 27 4.98a3.196 3.196 0 0 1 3.187 3.197 3.196 3.196 0 0 1-3.187 3.198zm0-4.374a1.176 1.176 0 0 0 0 2.353 1.176 1.176 0 0 0 0-2.353z"/></g></g></svg>