<svg xmlns="http://www.w3.org/2000/svg" width="31" height="54" viewBox="0 0 31 54"><g><g><path fill="#fff" d="M31 3.253v47.494C31 52.54 29.52 54 27.704 54H3.296C1.479 54 0 52.54 0 50.746V3.253C0 1.46 1.479 0 3.296 0h24.409C29.52 0 31 1.46 31 3.253zm-1.824 47.493V45H1.823v5.747c0 .8.66 1.453 1.473 1.453h24.409c.811 0 1.471-.653 1.471-1.454zm0-47.493c0-.8-.66-1.453-1.472-1.453H3.296c-.812 0-1.473.652-1.473 1.453V5.4h27.353zm0 39.947v-36H1.823v36zm-16.41 4.05h4.53a.89.89 0 0 1 0 1.781h-4.53a.89.89 0 0 1 0-1.781z"/></g></g></svg>