<?xml version="1.0" encoding="UTF-8" standalone="no"?>
<svg
   xmlns:dc="http://purl.org/dc/elements/1.1/"
   xmlns:cc="http://creativecommons.org/ns#"
   xmlns:rdf="http://www.w3.org/1999/02/22-rdf-syntax-ns#"
   xmlns:svg="http://www.w3.org/2000/svg"
   xmlns="http://www.w3.org/2000/svg"
   xmlns:sodipodi="http://sodipodi.sourceforge.net/DTD/sodipodi-0.dtd"
   xmlns:inkscape="http://www.inkscape.org/namespaces/inkscape"
   width="31"
   height="54"
   viewBox="0 0 31 54"
   version="1.1"
   id="svg835"
   sodipodi:docname="phone.svg"
   inkscape:version="0.92.3 (2405546, 2018-03-11)">
  <metadata
     id="metadata841">
    <rdf:RDF>
      <cc:Work
         rdf:about="">
        <dc:format>image/svg+xml</dc:format>
        <dc:type
           rdf:resource="http://purl.org/dc/dcmitype/StillImage" />
      </cc:Work>
    </rdf:RDF>
  </metadata>
  <defs
     id="defs839" />
  <sodipodi:namedview
     pagecolor="#ffffff"
     bordercolor="#666666"
     borderopacity="1"
     objecttolerance="10"
     gridtolerance="10"
     guidetolerance="10"
     inkscape:pageopacity="0"
     inkscape:pageshadow="2"
     inkscape:window-width="3840"
     inkscape:window-height="2066"
     id="namedview837"
     showgrid="false"
     inkscape:zoom="12.066646"
     inkscape:cx="33.684791"
     inkscape:cy="18.903705"
     inkscape:window-x="-11"
     inkscape:window-y="-11"
     inkscape:window-maximized="1"
     inkscape:current-layer="svg835" />
  <g
     id="g833"
     style="fill:#4e5ac4;fill-opacity:1">
    <g
       id="g831"
       style="fill:#4e5ac4;fill-opacity:1">
      <path
         d="M 31,3.253 V 50.747 C 31,52.54 29.52,54 27.704,54 H 3.296 C 1.479,54 0,52.54 0,50.746 V 3.253 C 0,1.46 1.479,0 3.296,0 H 27.705 C 29.52,0 31,1.46 31,3.253 Z M 29.176,50.746 V 45 H 1.823 v 5.747 c 0,0.8 0.66,1.453 1.473,1.453 h 24.409 c 0.811,0 1.471,-0.653 1.471,-1.454 z m 0,-47.493 c 0,-0.8 -0.66,-1.453 -1.472,-1.453 H 3.296 C 2.484,1.8 1.823,2.452 1.823,3.253 V 5.4 h 27.353 z m 0,39.947 V 7.2 H 1.823 v 36 z m -16.41,4.05 h 4.53 a 0.8905,0.8905 0 0 1 0,1.781 h -4.53 a 0.8905,0.8905 0 0 1 0,-1.781 z"
         id="path829"
         inkscape:connector-curvature="0"
         style="fill:#4e5ac4;fill-opacity:1" />
    </g>
  </g>
</svg>
