<svg xmlns="http://www.w3.org/2000/svg" width="129" height="129" viewBox="0 0 129 129"><g><g><path fill="#25bb07" d="M64.5 0C100.122 0 129 28.878 129 64.5S100.122 129 64.5 129 0 100.122 0 64.5 28.878 0 64.5 0z"/></g><g><path fill="#fff" d="M58.884 76.1a.956.956 0 0 1-.62-.228l-6.196-5.258a.953.953 0 0 1 0-1.454l6.196-5.258a.96.96 0 0 1 1.35.107.952.952 0 0 1-.109 1.345l-5.34 4.532 5.34 4.532a.952.952 0 0 1-.621 1.682zm12.232 0a.955.955 0 0 1-.621-1.682l5.34-4.532-5.34-4.532a.952.952 0 0 1-.108-1.345.96.96 0 0 1 1.349-.107l6.196 5.258a.952.952 0 0 1 0 1.454l-6.196 5.258a.956.956 0 0 1-.62.228zm-8.31 3.944a.955.955 0 0 1-.938-1.152L65.73 60.62a.958.958 0 0 1 1.874.393l-3.862 18.274a.957.957 0 0 1-.936.758zm24.765 9.955H42.429C38.884 90 36 87.125 36 83.592V45.407c0-3.533 2.885-6.408 6.43-6.408h45.142c3.544 0 6.429 2.875 6.429 6.408v38.185c0 3.533-2.885 6.407-6.43 6.407zM42.429 40.908c-2.489 0-4.514 2.018-4.514 4.499v6.965h54.17v-6.965c0-2.481-2.025-4.5-4.514-4.5zm-4.514 42.684c0 2.48 2.025 4.499 4.514 4.499h45.142c2.489 0 4.514-2.019 4.514-4.5v-29.31h-54.17zm14.446-33.878a3.03 3.03 0 0 1-3.03-3.02c0-1.666 1.36-3.02 3.03-3.02 1.67 0 3.03 1.354 3.03 3.02a3.03 3.03 0 0 1-3.03 3.02zm0-4.131c-.615 0-1.116.498-1.116 1.11a1.115 1.115 0 0 0 2.23 0c0-.612-.5-1.11-1.114-1.11zm-9.311 4.102a3.029 3.029 0 0 1-3.03-3.02c0-1.666 1.36-3.02 3.03-3.02 1.67 0 3.03 1.354 3.03 3.02 0 1.665-1.36 3.02-3.03 3.02zm0-4.132c-.614 0-1.115.5-1.115 1.112a1.115 1.115 0 0 0 2.23 0c0-.613-.5-1.112-1.115-1.112zm18.62 4.19a3.029 3.029 0 0 1-3.029-3.02c0-1.665 1.36-3.02 3.03-3.02 1.67 0 3.03 1.355 3.03 3.02s-1.36 3.02-3.03 3.02zm0-4.132c-.614 0-1.114.499-1.114 1.112a1.114 1.114 0 0 0 2.23 0c0-.613-.5-1.112-1.115-1.112z"/></g></g></svg>