<svg xmlns="http://www.w3.org/2000/svg" width="43" height="33" viewBox="0 0 43 33"><g><g><path fill="#682cd4" d="M43 5.311v22.386C43 30.622 40.641 33 37.74 33H5.258C2.358 33 0 30.622 0 27.697V5.303C0 2.377 2.358 0 5.258 0H37.75c2.9 0 5.258 2.387 5.25 5.311zm-2.403 22.386V5.311c0-1.588-1.281-2.88-2.856-2.88H5.258c-1.575 0-2.856 1.292-2.856 2.88v22.386c0 1.588 1.281 2.88 2.856 2.88H37.75c1.575 0 2.856-1.292 2.856-2.88zm-2.918-1.364c.48.458.498 1.23.044 1.714a1.195 1.195 0 0 1-1.699.045L25.33 17.846l-2.998 2.71a1.188 1.188 0 0 1-1.602.008l-2.918-2.629L7.055 28.083a1.198 1.198 0 0 1-1.7-.063 1.223 1.223 0 0 1 .054-1.713l10.597-10.005-10.641-9.59a1.217 1.217 0 0 1-.098-1.715 1.192 1.192 0 0 1 1.7-.098l11.512 10.39c.071.053.134.107.196.17 0 .009.009.018.018.027l2.829 2.548L36.024 4.908a1.2 1.2 0 0 1 1.7.09c.444.502.4 1.264-.09 1.713l-10.516 9.51z"/></g></g></svg>