<svg xmlns="http://www.w3.org/2000/svg" width="42" height="42" viewBox="0 0 42 42"><g><g><path fill="#1cbbb4" d="M1.252 15.848C.256 13.176-.128 10.965.037 8.885c.14-1.662.813-3.098 2.001-4.281l3.267-3.255c.935-.888 2-1.35 3.11-1.35C9.533 0 10.59.462 11.49 1.34a47.776 47.776 0 0 1 1.774 1.75c.297.304.585.6.89.904l2.604 2.594c.952.94 1.45 2.028 1.45 3.133s-.506 2.193-1.45 3.133c-.27.27-.542.54-.804.81a52.409 52.409 0 0 1-2.332 2.27c.585 1.35 1.424 2.673 2.673 4.248 2.472 3.02 5.058 5.37 7.906 7.17.288.184.612.349.96.523.28.14.577.287.866.453l3.127-3.116c.918-.914 1.992-1.401 3.11-1.401 1.118 0 2.184.487 3.075 1.41l5.25 5.23c1.879 1.871 1.879 4.326.018 6.258a40.5 40.5 0 0 1-1.232 1.218c-.603.583-1.18 1.131-1.686 1.74a.193.193 0 0 1-.035.044C36.23 41.251 34.484 42 32.308 42c-.201 0-.393-.009-.594-.018-3.241-.208-6.15-1.427-8.325-2.454-5.714-2.759-10.72-6.658-14.878-11.61-3.424-4.098-5.73-7.936-7.26-12.07zm2.018-.714c1.45 3.899 3.643 7.537 6.901 11.444 3.957 4.717 8.727 8.433 14.161 11.053 2 .949 4.665 2.062 7.53 2.245.149.009.306.018.455.018 1.546 0 2.743-.505 3.747-1.584.577-.688 1.215-1.297 1.826-1.889.41-.391.795-.766 1.162-1.157 1.066-1.106 1.075-2.237.026-3.281l-5.267-5.24c-.341-.365-.883-.774-1.547-.774-.541 0-1.092.27-1.598.775l-3.268 3.255c-.148.147-.602.591-1.301.591-.28 0-.56-.07-.848-.217-.035-.018-.06-.035-.096-.052a10.748 10.748 0 0 0-.96-.523c-.376-.191-.778-.383-1.154-.626-3.04-1.924-5.8-4.421-8.421-7.641-1.46-1.828-2.394-3.36-3.067-4.97-.008-.026-.017-.043-.026-.07-.175-.522-.288-1.209.437-1.931l.044-.044c.838-.74 1.598-1.514 2.41-2.332.272-.27.542-.549.813-.818.542-.54.821-1.088.821-1.628 0-.54-.28-1.088-.82-1.627l-2.604-2.594c-.306-.313-.612-.617-.909-.922-.594-.6-1.144-1.166-1.73-1.706-.497-.505-1.039-.757-1.572-.757-.541 0-1.1.252-1.607.74l-3.25 3.237c-.839.836-1.284 1.802-1.389 2.96-.14 1.748.2 3.672 1.1 6.065z"/></g></g></svg>