<svg xmlns="http://www.w3.org/2000/svg" width="31" height="44" viewBox="0 0 31 44"><g><g><path fill="#e74c16" d="M31 15.469c0 2.796-.756 5.536-2.186 7.925l-11.99 19.98a1.292 1.292 0 0 1-1.099.626h-.01c-.446 0-.862-.23-1.097-.61L2.314 23.603A15.412 15.412 0 0 1 0 15.469C0 6.939 6.953-.001 15.5-.001S31 6.94 31 15.47zm-2.575 0C28.425 8.36 22.622 2.56 15.5 2.56c-7.122 0-12.934 5.8-12.934 12.908 0 2.402.683 4.744 1.943 6.775l11.187 17.99 10.9-18.164a12.86 12.86 0 0 0 1.83-6.601zm-5.175 0c0 4.19-3.367 7.734-7.75 7.734a7.732 7.732 0 0 1-7.75-7.734c0-4.265 3.477-7.735 7.75-7.735s7.75 3.47 7.75 7.735zm-2.575 0c0-2.844-2.326-5.174-5.175-5.174-2.849 0-5.184 2.33-5.184 5.174 0 2.85 2.32 5.173 5.184 5.173 2.91 0 5.175-2.365 5.175-5.173z"/></g></g></svg>