<svg xmlns="http://www.w3.org/2000/svg" width="1958" height="1089" viewBox="0 0 1958 1089"><defs><linearGradient id="lihyb" x1="512" x2="1500" y1="0" y2="1098" gradientUnits="userSpaceOnUse"><stop offset="0" stop-color="#801ae2"/><stop offset="1" stop-color="#00bf95"/></linearGradient><clipPath id="lihya"><path d="M5 1l1953-1-2 1001s-1501.715 79.307-1618 84c-87.434 3.529-348.1 44.284-337-247C12.203 543.99 5 1 5 1z"/></clipPath></defs><g><g><path fill="#2b3d61" d="M5 1l1953-1-2 1001s-1501.715 79.307-1618 84c-87.434 3.529-348.1 44.284-337-247C12.203 543.99 5 1 5 1z"/></g><g clip-path="url(#lihya)"><path fill="#2b3d61" d="M-18 0h2048v1098H-18z"/><path fill="url(#lihyb)" d="M-18 0h2048v1098H-18z"/></g></g></svg>