<svg xmlns="http://www.w3.org/2000/svg" width="1958" height="450" viewBox="0 0 1958 450"><defs><linearGradient id="p7jib" x1="512" x2="1500" y1="-101" y2="997" gradientUnits="userSpaceOnUse"><stop offset="0" stop-color="#801ae2"/><stop offset="1" stop-color="#00bf95"/></linearGradient><clipPath id="p7jia"><path d="M5 425.893l1953 1L1956 88S454.285 8.693 338 4C250.566.472-10.1-40.284 1 251c11.203 294.01 4 174.894 4 174.894z"/></clipPath></defs><g><g><path fill="#2b3d61" d="M5 425.893l1953 1L1956 88S454.285 8.693 338 4C250.566.472-10.1-40.284 1 251c11.203 294.01 4 174.894 4 174.894z"/></g><g clip-path="url(#p7jia)"><path fill="#2b3d61" d="M-18-101h2048V997H-18z"/><path fill="url(#p7jib)" d="M-18-101h2048V997H-18z"/></g></g></svg>